<?xml version="1.0" encoding="UTF-8" standalone="no"?>
<!-- Created with Inkscape (http://www.inkscape.org/) -->

<svg
   xmlns:dc="http://purl.org/dc/elements/1.1/"
   xmlns:cc="http://creativecommons.org/ns#"
   xmlns:rdf="http://www.w3.org/1999/02/22-rdf-syntax-ns#"
   xmlns:svg="http://www.w3.org/2000/svg"
   xmlns="http://www.w3.org/2000/svg"
   xmlns:sodipodi="http://sodipodi.sourceforge.net/DTD/sodipodi-0.dtd"
   xmlns:inkscape="http://www.inkscape.org/namespaces/inkscape"
   width="210mm"
   height="297mm"
   viewBox="0 0 210 297"
   version="1.1"
   id="svg8"
   inkscape:version="0.92.2 (5c3e80d, 2017-08-06)"
   sodipodi:docname="face.svg">
  <defs
     id="defs2" />
  <sodipodi:namedview
     id="base"
     pagecolor="#ffffff"
     bordercolor="#666666"
     borderopacity="1.0"
     inkscape:pageopacity="0.0"
     inkscape:pageshadow="2"
     inkscape:zoom="0.35"
     inkscape:cx="712.11513"
     inkscape:cy="596.7853"
     inkscape:document-units="mm"
     inkscape:current-layer="layer1"
     showgrid="false"
     inkscape:window-width="1366"
     inkscape:window-height="690"
     inkscape:window-x="0"
     inkscape:window-y="22"
     inkscape:window-maximized="1" />
  <metadata
     id="metadata5">
    <rdf:RDF>
      <cc:Work
         rdf:about="">
        <dc:format>image/svg+xml</dc:format>
        <dc:type
           rdf:resource="http://purl.org/dc/dcmitype/StillImage" />
        <dc:title></dc:title>
      </cc:Work>
    </rdf:RDF>
  </metadata>
  <g
     inkscape:label="Layer 1"
     inkscape:groupmode="layer"
     id="layer1">
    <path
       style="fill:none;stroke:#d2d2d2;stroke-width:1.0px;stroke-linecap:butt;stroke-linejoin:miter;stroke-opacity:1"
       d="m 100.54167,153.36904 c -2.878341,13.17788 -21.181798,5.67721 -12.851196,1.51191 8.389887,-4.19494 16.133096,8.05738 24.190466,0 2.80328,-2.80329 3.40837,-10.19878 10.58334,-3.02381 13.41895,13.41895 -12.09523,3.741 -12.09523,3.02381 0,-0.91976 12.3934,4.23753 13.60713,3.02381 14.31498,-14.31499 -32.121845,-37.42577 -9.07142,-60.476185 5.43125,-5.43126 42.62216,-8.260205 50.6488,3.779755 24.19344,36.29016 -22.77373,4.63087 -36.28571,18.14286 -4.95009,4.95009 5.0578,11.86136 6.80357,13.60714 14.20484,14.20484 11.38167,58.92191 2.26786,68.03571 -2.99895,2.99896 -46.23162,13.48862 -31.74999,27.97024 10.49884,10.49885 44.27075,-16.72605 49.13689,-26.45833 9.46012,-18.92023 3.91573,-49.40883 13.60715,-68.79167 7.40912,-14.81824 33.93888,-37.876587 8.31547,-63.499994 -9.42055,-9.420559 -27.66683,2.419559 -38.55357,-3.023809 -7.9716,-3.985803 -33.82743,-6.520807 -43.845235,-1.511906 -18.22119,9.110596 -31.547969,5.089638 -45.357139,18.898812 -2.984161,2.98416 -5.291667,33.417807 -5.291667,43.845237 0,10.79237 -5.195594,15.58678 -8.315475,24.94642 -4.351986,13.05596 8.66051,16.15415 11.339284,24.19048 13.194615,39.58384 6.532878,39.93013 46.113097,59.72024 C 171.09534,275.95839 214.92613,91.616613 173.86904,50.559523 169.97948,46.669968 122.12208,45.610057 119.44047,48.291665 119.39357,48.338515 80.064216,40.559836 73.32738,42.244047 62.313958,44.997401 44.382799,57.581485 36.285714,65.678571 18.810844,83.153443 7.9934948,255.10063 25.70238,272.80951 c 3.700021,3.70004 1.511906,-61.37229 1.511906,-67.27975 0,-22.18902 -13.949606,-89.61587 5.291667,-108.857137 C 50.199688,78.978881 18.433961,266.61634 45.357143,253.15476 49.501296,251.08268 34.683217,122.64677 44.601189,92.892853 55.37892,60.559664 133.41797,83.331813 114.1488,39.976189"
       id="path3705"
       inkscape:connector-curvature="0"
       sodipodi:nodetypes="cscssccssccsssssssssssscsscsscsc" />
  </g>
</svg>
